 <svg  version="1.0" xmlns="http://www.w3.org/2000/svg"  width="51.000000pt" height="51.000000pt" viewBox="0 0 51.000000 51.000000"  preserveAspectRatio="xMidYMid meet">  <g transform="translate(0.000000,51.000000) scale(0.100000,-0.100000)" fill="#c91144" stroke="none"> <path d="M124 412 c-27 -18 -35 -51 -20 -81 17 -33 38 -43 70 -35 15 3 28 -2 40 -15 19 -20 19 -22 1 -41 -14 -15 -26 -19 -47 -15 -21 5 -33 1 -53 -19 -30 -30 -32 -55 -7 -87 41 -50 132 -11 117 50 -5 21 7 38 92 123 77 77 95 100 85 110 -10 10 -26 -1 -77 -52 -64 -63 -64 -64 -85 -45 -14 13 -19 26 -16 41 12 47 -59 94 -100 66z m61 -52 c0 -20 -5 -25 -25 -25 -20 0 -26 6 -28 28 -3 26 -1 28 25 25 22 -2 28 -8 28 -28z m0 -200 c0 -18 -6 -26 -23 -28 -13 -2 -25 3 -28 12 -10 26 4 48 28 44 17 -2 23 -10 23 -28z"/> <path d="M294 219 c-4 -6 16 -34 45 -62 40 -41 53 -49 63 -39 10 10 2 23 -37 62 -52 53 -60 57 -71 39z"/> </g> </svg> 